REM DIRINDEX 1\2\6,1\2\7,1\2\8,1\2\9,1\3\10,1\3\11,1\4\12,1\4\13,1\4\14,1\5\15,1\5\16,1\5\17
REM DIRNAME folder01,folder02,folder03,folder04,folder05,folder06,folder07,folder08,folder09,folder10,folder11,folder12,folder13,folder14,folder15,folder16,folder17
TITLE ""
FILE "1900_2_sec03_0201_0214.mp3" MP3
  TRACK 01 AUDIO
    TITLE "0:"
    INDEX 01 00:00:00
  TRACK 02 AUDIO
    TITLE "12:cjc020_2493"
    INDEX 01 00:03:21
  TRACK 03 AUDIO
    TITLE "0:"
    INDEX 01 00:04:62
  TRACK 04 AUDIO
    TITLE "12:cjc020_2494"
    INDEX 01 00:05:28
  TRACK 05 AUDIO
    TITLE "0:"
    INDEX 01 00:06:51
  TRACK 06 AUDIO
    TITLE "13:cjc020_2495"
    INDEX 01 00:07:54
  TRACK 07 AUDIO
    TITLE "0:"
    INDEX 01 00:08:70
  TRACK 08 AUDIO
    TITLE "14:cjc020_2496"
    INDEX 01 00:09:00
  TRACK 09 AUDIO
    TITLE "0:"
    INDEX 01 00:11:60
  TRACK 10 AUDIO
    TITLE "13:cjc020_2497"
    INDEX 01 00:12:40
  TRACK 11 AUDIO
    TITLE "0:"
    INDEX 01 00:13:65
  TRACK 12 AUDIO
    TITLE "14:cjc020_2498"
    INDEX 01 00:13:67
  TRACK 13 AUDIO
    TITLE "0:"
    INDEX 01 00:16:53
  TRACK 14 AUDIO
    TITLE "13:cjc020_2499"
    INDEX 01 00:17:33
  TRACK 15 AUDIO
    TITLE "0:"
    INDEX 01 00:18:46
  TRACK 16 AUDIO
    TITLE "14:cjc020_2500"
    INDEX 01 00:18:50
  TRACK 17 AUDIO
    TITLE "0:"
    INDEX 01 00:22:48
  TRACK 18 AUDIO
    TITLE "13:cjc020_2501"
    INDEX 01 00:23:28
  TRACK 19 AUDIO
    TITLE "0:"
    INDEX 01 00:24:37
  TRACK 20 AUDIO
    TITLE "14:cjc020_2502"
    INDEX 01 00:24:39
  TRACK 21 AUDIO
    TITLE "0:"
    INDEX 01 00:28:62
  TRACK 22 AUDIO
    TITLE "13:cjc020_2503"
    INDEX 01 00:29:38
  TRACK 23 AUDIO
    TITLE "0:"
    INDEX 01 00:30:48
  TRACK 24 AUDIO
    TITLE "14:cjc020_2504"
    INDEX 01 00:30:55
  TRACK 25 AUDIO
    TITLE "0:"
    INDEX 01 00:34:36
  TRACK 26 AUDIO
    TITLE "13:cjc020_2505"
    INDEX 01 00:35:17
  TRACK 27 AUDIO
    TITLE "0:"
    INDEX 01 00:36:33
  TRACK 28 AUDIO
    TITLE "14:cjc020_2506"
    INDEX 01 00:36:36
  TRACK 29 AUDIO
    TITLE "0:"
    INDEX 01 00:38:65
  TRACK 30 AUDIO
    TITLE "13:cjc020_2507"
    INDEX 01 00:39:49
  TRACK 31 AUDIO
    TITLE "0:"
    INDEX 01 00:40:60
  TRACK 32 AUDIO
    TITLE "14:cjc020_2508"
    INDEX 01 00:40:68
  TRACK 33 AUDIO
    TITLE "0:"
    INDEX 01 00:43:19
  TRACK 34 AUDIO
    TITLE "13:cjc020_2509"
    INDEX 01 00:43:72
  TRACK 35 AUDIO
    TITLE "0:"
    INDEX 01 00:45:06
  TRACK 36 AUDIO
    TITLE "14:cjc020_2510"
    INDEX 01 00:45:10
  TRACK 37 AUDIO
    TITLE "0:"
    INDEX 01 00:47:40
  TRACK 38 AUDIO
    TITLE "13:cjc020_2511"
    INDEX 01 00:48:22
  TRACK 39 AUDIO
    TITLE "0:"
    INDEX 01 00:49:27
  TRACK 40 AUDIO
    TITLE "14:cjc020_2512"
    INDEX 01 00:49:31
  TRACK 41 AUDIO
    TITLE "0:"
    INDEX 01 00:51:63
  TRACK 42 AUDIO
    TITLE "13:cjc020_2513"
    INDEX 01 00:52:43
  TRACK 43 AUDIO
    TITLE "0:"
    INDEX 01 00:53:64
  TRACK 44 AUDIO
    TITLE "14:cjc020_2514"
    INDEX 01 00:53:68
  TRACK 45 AUDIO
    TITLE "0:"
    INDEX 01 00:56:27
  TRACK 46 AUDIO
    TITLE "13:cjc020_2515"
    INDEX 01 00:57:05
  TRACK 47 AUDIO
    TITLE "0:"
    INDEX 01 00:58:30
  TRACK 48 AUDIO
    TITLE "14:cjc020_2516"
    INDEX 01 00:58:34
  TRACK 49 AUDIO
    TITLE "0:"
    INDEX 01 01:01:58
  TRACK 50 AUDIO
    TITLE "13:cjc020_2517"
    INDEX 01 01:02:38
  TRACK 51 AUDIO
    TITLE "0:"
    INDEX 01 01:03:57
  TRACK 52 AUDIO
    TITLE "14:cjc020_2518"
    INDEX 01 01:03:59
  TRACK 53 AUDIO
    TITLE "0:"
    INDEX 01 01:07:49
  TRACK 54 AUDIO
    TITLE "13:cjc020_2519"
    INDEX 01 01:08:29
  TRACK 55 AUDIO
    TITLE "0:"
    INDEX 01 01:09:42
  TRACK 56 AUDIO
    TITLE "14:cjc020_2520"
    INDEX 01 01:09:46
  TRACK 57 AUDIO
    TITLE "0:"
    INDEX 01 01:15:42
  TRACK 58 AUDIO
    TITLE "13:cjc020_2521"
    INDEX 01 01:16:22
  TRACK 59 AUDIO
    TITLE "0:"
    INDEX 01 01:17:22
  TRACK 60 AUDIO
    TITLE "14:cjc020_2522"
    INDEX 01 01:17:28
  TRACK 61 AUDIO
    TITLE "0:"
    INDEX 01 01:19:66
